<svg width="372" height="118" viewBox="0 0 372 118" fill="none" xmlns="http://www.w3.org/2000/svg">
<path d="M117.458 47.2595C116.125 42.1839 113.152 37.6911 109.002 34.4798C104.852 31.2686 99.7564 29.519 94.5088 29.5032C93.7759 29.5032 93.0534 29.5356 92.3482 29.5992C88.6682 22.7349 82.819 17.2822 75.7136 14.0925C68.6082 10.9028 60.6466 10.1555 53.0718 11.9673C45.4969 13.7791 38.7352 18.0481 33.8421 24.1077C28.9491 30.1673 26.2002 37.6765 26.0245 45.4631C18.333 46.7177 11.3957 50.8216 6.59238 56.9584C1.78907 63.0952 -0.528214 70.8152 0.101482 78.5828C0.731178 86.3505 4.26171 93.5964 9.99079 98.8794C15.7199 104.162 23.2277 107.095 31.0208 107.095H105.976C113.19 107.096 120.178 104.583 125.738 99.9888C131.299 95.3945 135.085 89.0058 136.444 81.9218C137.804 74.8379 136.651 67.5017 133.186 61.1754C129.721 54.8491 124.159 49.9282 117.458 47.2595V47.2595ZM105.976 103.049H31.0208C24.1086 103.045 17.4617 100.387 12.4521 95.6249C7.44249 90.8624 4.45259 84.3583 4.09957 77.4552C3.74654 70.5521 6.05734 63.7769 10.555 58.5281C15.0526 53.2794 21.3938 49.9578 28.2695 49.249C28.7929 49.1959 29.2752 48.941 29.6138 48.5383C29.9524 48.1355 30.1208 47.6167 30.0832 47.0919C30.0636 46.8168 30.0647 46.5405 30.0647 46.2653C30.0653 39.2006 32.4625 32.345 36.8645 26.8194C41.2666 21.2937 47.413 17.4249 54.2989 15.8455C61.1848 14.266 68.4029 15.0693 74.773 18.1241C81.1432 21.1788 86.2886 26.3043 89.368 32.6626C89.557 33.0544 89.8676 33.3747 90.2533 33.5757C90.6391 33.7767 91.0796 33.8477 91.509 33.7781C92.5009 33.6223 93.5036 33.545 94.5077 33.5469C99.0197 33.5596 103.391 35.1186 106.893 37.964C110.394 40.8094 112.815 44.7692 113.751 49.1831C113.821 49.5226 113.978 49.8383 114.206 50.0998C114.433 50.3613 114.725 50.56 115.051 50.6767C121.033 52.817 126.067 57 129.266 62.4885C132.466 67.9771 133.625 74.4188 132.54 80.6784C131.455 86.938 128.195 92.6137 123.335 96.7053C118.475 100.797 112.327 103.042 105.974 103.044L105.976 103.049Z" fill="black"/>
<path d="M121.407 63.5171C121.29 63.2761 121.126 63.0608 120.925 62.8837C120.724 62.7065 120.49 62.5711 120.236 62.4853C119.982 62.3995 119.713 62.365 119.446 62.3838C119.179 62.4026 118.918 62.4744 118.678 62.5949C118.439 62.7154 118.226 62.8822 118.052 63.0858C117.877 63.2893 117.745 63.5254 117.663 63.7805C117.58 64.0355 117.55 64.3044 117.572 64.5715C117.595 64.8385 117.67 65.0985 117.794 65.3362C120.079 69.8576 120.563 75.0775 119.149 79.9422C117.735 84.8068 114.528 88.9539 110.176 91.5461C109.723 91.8254 109.399 92.2714 109.273 92.7877C109.147 93.3039 109.23 93.8491 109.502 94.3053C109.775 94.7615 110.216 95.092 110.73 95.2255C111.245 95.359 111.791 95.2847 112.251 95.0187C117.481 91.9022 121.335 86.9183 123.035 81.0721C124.735 75.226 124.154 68.9527 121.411 63.5177L121.407 63.5171Z" fill="black"/>
<path d="M169.7 95.65C166.9 95.65 164.633 95.2667 162.9 94.5C161.2 93.7333 159.883 92.7 158.95 91.4C158.05 90.1 157.433 88.6167 157.1 86.95C156.8 85.25 156.65 83.5 156.65 81.7V20.7H165.75V80.8C165.75 83.4 166.25 85.35 167.25 86.65C168.283 87.95 169.717 88.6667 171.55 88.8L174.35 88.85V94.85C173.583 95.0833 172.783 95.2667 171.95 95.4C171.117 95.5667 170.367 95.65 169.7 95.65ZM196.24 43.3V95H187.29V43.3H196.24ZM196.44 22.75V32.35H186.99V22.75H196.44ZM230.859 96C227.259 96 223.909 95.45 220.809 94.35C217.743 93.2167 215.193 91.4667 213.159 89.1C211.126 86.7 209.843 83.65 209.309 79.95H217.709C218.176 81.9833 219.009 83.6833 220.209 85.05C221.443 86.3833 222.976 87.4 224.809 88.1C226.643 88.7667 228.643 89.1 230.809 89.1C234.276 89.1 237.076 88.45 239.209 87.15C241.343 85.85 242.409 83.85 242.409 81.15C242.409 79.25 241.843 77.7333 240.709 76.6C239.609 75.4333 237.893 74.5833 235.559 74.05L224.859 71.4C220.693 70.4 217.359 68.8333 214.859 66.7C212.359 64.5667 211.109 61.5833 211.109 57.75C211.076 54.7167 211.793 52.05 213.259 49.75C214.726 47.45 216.926 45.6333 219.859 44.3C222.793 42.9667 226.443 42.3 230.809 42.3C236.409 42.3 240.926 43.5667 244.359 46.1C247.826 48.6 249.626 52.2833 249.759 57.15H241.609C241.276 54.6833 240.159 52.7333 238.259 51.3C236.393 49.8333 233.876 49.1 230.709 49.1C227.409 49.1 224.726 49.7667 222.659 51.1C220.593 52.4 219.559 54.4333 219.559 57.2C219.559 59.0333 220.293 60.4833 221.759 61.55C223.226 62.5833 225.393 63.45 228.259 64.15L238.609 66.75C241.009 67.3833 242.976 68.2167 244.509 69.25C246.076 70.2833 247.309 71.4333 248.209 72.7C249.143 73.9667 249.793 75.3 250.159 76.7C250.559 78.0667 250.759 79.3833 250.759 80.65C250.759 83.8167 249.959 86.55 248.359 88.85C246.793 91.1167 244.526 92.8833 241.559 94.15C238.626 95.3833 235.059 96 230.859 96ZM263.681 111.1V43.3H272.881L272.981 52.3C273.581 51.2333 274.348 50.1167 275.281 48.95C276.248 47.7833 277.415 46.7 278.781 45.7C280.181 44.7 281.798 43.8833 283.631 43.25C285.498 42.6167 287.615 42.3 289.981 42.3C294.115 42.3 297.748 43.25 300.881 45.15C304.048 47.0167 306.515 49.8833 308.281 53.75C310.048 57.6167 310.931 62.5167 310.931 68.45C310.931 74.3833 310.065 79.4 308.331 83.5C306.631 87.5667 304.165 90.6667 300.931 92.8C297.698 94.9333 293.798 96 289.231 96C286.931 96 284.881 95.6667 283.081 95C281.315 94.3667 279.765 93.5333 278.431 92.5C277.131 91.4333 276.031 90.3 275.131 89.1C274.265 87.9 273.548 86.75 272.981 85.65V111.1H263.681ZM287.481 88.8C291.748 88.8 295.231 87.1833 297.931 83.95C300.631 80.6833 301.981 75.6167 301.981 68.75C301.981 62.85 300.748 58.1667 298.281 54.7C295.815 51.2333 292.215 49.5 287.481 49.5C282.681 49.5 279.048 51.2833 276.581 54.85C274.115 58.3833 272.881 63.0167 272.881 68.75C272.881 72.45 273.431 75.8167 274.531 78.85C275.631 81.8833 277.265 84.3 279.431 86.1C281.598 87.9 284.281 88.8 287.481 88.8ZM336.77 96C333.437 96 330.487 95.4167 327.92 94.25C325.354 93.05 323.337 91.3333 321.87 89.1C320.437 86.8667 319.72 84.1667 319.72 81C319.72 75.2667 321.72 71 325.72 68.2C329.72 65.4 336.137 63.9 344.97 63.7L354.22 63.45V59.4C354.22 56.2333 353.27 53.7333 351.37 51.9C349.47 50.0333 346.52 49.1 342.52 49.1C339.554 49.1333 336.937 49.8333 334.67 51.2C332.437 52.5667 330.987 54.8 330.32 57.9H322.17C322.37 54.5333 323.32 51.7 325.02 49.4C326.72 47.0667 329.087 45.3 332.12 44.1C335.187 42.9 338.804 42.3 342.97 42.3C347.47 42.3 351.204 42.9333 354.17 44.2C357.17 45.4667 359.404 47.3333 360.87 49.8C362.37 52.2667 363.12 55.3 363.12 58.9V95H355.22L354.57 85.3C352.57 89.3333 350.02 92.1333 346.92 93.7C343.854 95.2333 340.47 96 336.77 96ZM339.57 89.35C341.304 89.35 343.02 89.0333 344.72 88.4C346.454 87.7667 348.037 86.9167 349.47 85.85C350.904 84.75 352.037 83.5333 352.87 82.2C353.737 80.8333 354.187 79.4333 354.22 78V69.15L346.52 69.3C342.587 69.3667 339.287 69.7667 336.62 70.5C333.987 71.2333 332.004 72.3833 330.67 73.95C329.37 75.5167 328.72 77.5667 328.72 80.1C328.72 83 329.72 85.2667 331.72 86.9C333.754 88.5333 336.37 89.35 339.57 89.35Z" fill="black"/>
</svg>
