<svg width="500" height="200" viewBox="0 0 500 200" fill="none" xmlns="http://www.w3.org/2000/svg">
<rect width="500" height="200" fill="url(#paint0_linear_1_9)"/>
<path d="M181.458 88.2595C180.125 83.1839 177.152 78.6911 173.002 75.4798C168.852 72.2686 163.756 70.519 158.509 70.5032C157.776 70.5032 157.053 70.5356 156.348 70.5992C152.668 63.7349 146.819 58.2822 139.714 55.0925C132.608 51.9028 124.647 51.1555 117.072 52.9673C109.497 54.7791 102.735 59.0481 97.8421 65.1077C92.9491 71.1673 90.2002 78.6765 90.0245 86.4631C82.333 87.7177 75.3957 91.8216 70.5924 97.9584C65.7891 104.095 63.4718 111.815 64.1015 119.583C64.7312 127.35 68.2617 134.596 73.9908 139.879C79.7199 145.162 87.2277 148.095 95.0208 148.095H169.976C177.19 148.096 184.178 145.583 189.738 140.989C195.299 136.394 199.085 130.006 200.444 122.922C201.804 115.838 200.651 108.502 197.186 102.175C193.721 95.8491 188.159 90.9282 181.458 88.2595V88.2595ZM169.976 144.049H95.0208C88.1086 144.045 81.4617 141.387 76.4521 136.625C71.4425 131.862 68.4526 125.358 68.0996 118.455C67.7465 111.552 70.0573 104.777 74.555 99.5281C79.0526 94.2794 85.3938 90.9578 92.2695 90.249C92.7929 90.1959 93.2752 89.941 93.6138 89.5383C93.9524 89.1355 94.1208 88.6167 94.0832 88.0919C94.0636 87.8168 94.0647 87.5405 94.0647 87.2653C94.0653 80.2006 96.4625 73.345 100.865 67.8194C105.267 62.2937 111.413 58.4249 118.299 56.8455C125.185 55.266 132.403 56.0693 138.773 59.1241C145.143 62.1788 150.289 67.3043 153.368 73.6626C153.557 74.0544 153.868 74.3747 154.253 74.5757C154.639 74.7767 155.08 74.8477 155.509 74.7781C156.501 74.6223 157.504 74.545 158.508 74.5469C163.02 74.5596 167.391 76.1186 170.893 78.964C174.394 81.8094 176.815 85.7692 177.751 90.1831C177.821 90.5226 177.978 90.8383 178.206 91.0998C178.433 91.3613 178.725 91.56 179.051 91.6767C185.033 93.817 190.067 98 193.266 103.489C196.466 108.977 197.625 115.419 196.54 121.678C195.455 127.938 192.195 133.614 187.335 137.705C182.475 141.797 176.327 144.042 169.974 144.044L169.976 144.049Z" fill="black"/>
<path d="M185.407 104.517C185.29 104.276 185.126 104.061 184.925 103.884C184.724 103.707 184.49 103.571 184.236 103.485C183.982 103.4 183.713 103.365 183.446 103.384C183.179 103.403 182.918 103.474 182.678 103.595C182.439 103.715 182.226 103.882 182.052 104.086C181.877 104.289 181.745 104.525 181.663 104.78C181.58 105.036 181.55 105.304 181.572 105.571C181.595 105.839 181.67 106.098 181.794 106.336C184.079 110.858 184.563 116.078 183.149 120.942C181.735 125.807 178.528 129.954 174.176 132.546C173.723 132.825 173.399 133.271 173.273 133.788C173.147 134.304 173.23 134.849 173.502 135.305C173.775 135.761 174.216 136.092 174.73 136.226C175.245 136.359 175.791 136.285 176.251 136.019C181.481 132.902 185.335 127.918 187.035 122.072C188.735 116.226 188.154 109.953 185.411 104.518L185.407 104.517Z" fill="black"/>
<path d="M233.7 136.65C230.9 136.65 228.633 136.267 226.9 135.5C225.2 134.733 223.883 133.7 222.95 132.4C222.05 131.1 221.433 129.617 221.1 127.95C220.8 126.25 220.65 124.5 220.65 122.7V61.7H229.75V121.8C229.75 124.4 230.25 126.35 231.25 127.65C232.283 128.95 233.717 129.667 235.55 129.8L238.35 129.85V135.85C237.583 136.083 236.783 136.267 235.95 136.4C235.117 136.567 234.367 136.65 233.7 136.65ZM260.24 84.3V136H251.29V84.3H260.24ZM260.44 63.75V73.35H250.99V63.75H260.44ZM294.859 137C291.259 137 287.909 136.45 284.809 135.35C281.743 134.217 279.193 132.467 277.159 130.1C275.126 127.7 273.843 124.65 273.309 120.95H281.709C282.176 122.983 283.009 124.683 284.209 126.05C285.443 127.383 286.976 128.4 288.809 129.1C290.643 129.767 292.643 130.1 294.809 130.1C298.276 130.1 301.076 129.45 303.209 128.15C305.343 126.85 306.409 124.85 306.409 122.15C306.409 120.25 305.843 118.733 304.709 117.6C303.609 116.433 301.893 115.583 299.559 115.05L288.859 112.4C284.693 111.4 281.359 109.833 278.859 107.7C276.359 105.567 275.109 102.583 275.109 98.75C275.076 95.7167 275.793 93.05 277.259 90.75C278.726 88.45 280.926 86.6333 283.859 85.3C286.793 83.9667 290.443 83.3 294.809 83.3C300.409 83.3 304.926 84.5667 308.359 87.1C311.826 89.6 313.626 93.2833 313.759 98.15H305.609C305.276 95.6833 304.159 93.7333 302.259 92.3C300.393 90.8333 297.876 90.1 294.709 90.1C291.409 90.1 288.726 90.7667 286.659 92.1C284.593 93.4 283.559 95.4333 283.559 98.2C283.559 100.033 284.293 101.483 285.759 102.55C287.226 103.583 289.393 104.45 292.259 105.15L302.609 107.75C305.009 108.383 306.976 109.217 308.509 110.25C310.076 111.283 311.309 112.433 312.209 113.7C313.143 114.967 313.793 116.3 314.159 117.7C314.559 119.067 314.759 120.383 314.759 121.65C314.759 124.817 313.959 127.55 312.359 129.85C310.793 132.117 308.526 133.883 305.559 135.15C302.626 136.383 299.059 137 294.859 137ZM327.681 152.1V84.3H336.881L336.981 93.3C337.581 92.2333 338.348 91.1167 339.281 89.95C340.248 88.7833 341.415 87.7 342.781 86.7C344.181 85.7 345.798 84.8833 347.631 84.25C349.498 83.6167 351.615 83.3 353.981 83.3C358.115 83.3 361.748 84.25 364.881 86.15C368.048 88.0167 370.515 90.8833 372.281 94.75C374.048 98.6167 374.931 103.517 374.931 109.45C374.931 115.383 374.065 120.4 372.331 124.5C370.631 128.567 368.165 131.667 364.931 133.8C361.698 135.933 357.798 137 353.231 137C350.931 137 348.881 136.667 347.081 136C345.315 135.367 343.765 134.533 342.431 133.5C341.131 132.433 340.031 131.3 339.131 130.1C338.265 128.9 337.548 127.75 336.981 126.65V152.1H327.681ZM351.481 129.8C355.748 129.8 359.231 128.183 361.931 124.95C364.631 121.683 365.981 116.617 365.981 109.75C365.981 103.85 364.748 99.1667 362.281 95.7C359.815 92.2333 356.215 90.5 351.481 90.5C346.681 90.5 343.048 92.2833 340.581 95.85C338.115 99.3833 336.881 104.017 336.881 109.75C336.881 113.45 337.431 116.817 338.531 119.85C339.631 122.883 341.265 125.3 343.431 127.1C345.598 128.9 348.281 129.8 351.481 129.8ZM400.77 137C397.437 137 394.487 136.417 391.92 135.25C389.354 134.05 387.337 132.333 385.87 130.1C384.437 127.867 383.72 125.167 383.72 122C383.72 116.267 385.72 112 389.72 109.2C393.72 106.4 400.137 104.9 408.97 104.7L418.22 104.45V100.4C418.22 97.2333 417.27 94.7333 415.37 92.9C413.47 91.0333 410.52 90.1 406.52 90.1C403.554 90.1333 400.937 90.8333 398.67 92.2C396.437 93.5667 394.987 95.8 394.32 98.9H386.17C386.37 95.5333 387.32 92.7 389.02 90.4C390.72 88.0667 393.087 86.3 396.12 85.1C399.187 83.9 402.804 83.3 406.97 83.3C411.47 83.3 415.204 83.9333 418.17 85.2C421.17 86.4667 423.404 88.3333 424.87 90.8C426.37 93.2667 427.12 96.3 427.12 99.9V136H419.22L418.57 126.3C416.57 130.333 414.02 133.133 410.92 134.7C407.854 136.233 404.47 137 400.77 137ZM403.57 130.35C405.304 130.35 407.02 130.033 408.72 129.4C410.454 128.767 412.037 127.917 413.47 126.85C414.904 125.75 416.037 124.533 416.87 123.2C417.737 121.833 418.187 120.433 418.22 119V110.15L410.52 110.3C406.587 110.367 403.287 110.767 400.62 111.5C397.987 112.233 396.004 113.383 394.67 114.95C393.37 116.517 392.72 118.567 392.72 121.1C392.72 124 393.72 126.267 395.72 127.9C397.754 129.533 400.37 130.35 403.57 130.35Z" fill="black"/>
<defs>
<linearGradient id="paint0_linear_1_9" x1="250" y1="0" x2="250" y2="200" gradientUnits="userSpaceOnUse">
<stop offset="0.817708" stop-color="white"/>
<stop offset="1" stop-color="#D5D5D5"/>
</linearGradient>
</defs>
</svg>
