<svg width="137" height="97" viewBox="0 0 137 97" fill="none" xmlns="http://www.w3.org/2000/svg">
<path d="M117.458 36.2595C116.125 31.1839 113.152 26.6911 109.002 23.4798C104.852 20.2686 99.7564 18.519 94.5088 18.5032C93.7759 18.5032 93.0534 18.5356 92.3482 18.5992C88.6682 11.7349 82.819 6.28222 75.7136 3.09249C68.6082 -0.0972339 60.6466 -0.844519 53.0718 0.967301C45.4969 2.77912 38.7352 7.04807 33.8421 13.1077C28.9491 19.1673 26.2002 26.6765 26.0245 34.4631C18.333 35.7177 11.3957 39.8216 6.59238 45.9584C1.78907 52.0952 -0.528214 59.8152 0.101482 67.5828C0.731178 75.3505 4.26171 82.5964 9.99079 87.8794C15.7199 93.1624 23.2277 96.0953 31.0208 96.0946H105.976C113.19 96.0959 120.178 93.5832 125.738 88.9888C131.299 84.3945 135.085 78.0058 136.444 70.9218C137.804 63.8379 136.651 56.5017 133.186 50.1754C129.721 43.8491 124.159 38.9282 117.458 36.2595V36.2595ZM105.976 92.0486H31.0208C24.1086 92.0448 17.4617 89.3875 12.4521 84.6249C7.44249 79.8624 4.45259 73.3583 4.09957 66.4552C3.74654 59.5521 6.05734 52.7769 10.555 47.5281C15.0526 42.2794 21.3938 38.9578 28.2695 38.249C28.7929 38.1959 29.2752 37.941 29.6138 37.5383C29.9524 37.1355 30.1208 36.6167 30.0832 36.0919C30.0636 35.8168 30.0647 35.5405 30.0647 35.2653C30.0653 28.2006 32.4625 21.345 36.8645 15.8194C41.2666 10.2937 47.413 6.42494 54.2989 4.84547C61.1848 3.26601 68.4029 4.06932 74.773 7.12407C81.1432 10.1788 86.2886 15.3043 89.368 21.6626C89.557 22.0544 89.8676 22.3747 90.2533 22.5757C90.6391 22.7767 91.0796 22.8477 91.509 22.7781C92.5009 22.6223 93.5036 22.545 94.5077 22.5469C99.0197 22.5596 103.391 24.1186 106.893 26.964C110.394 29.8094 112.815 33.7692 113.751 38.1831C113.821 38.5226 113.978 38.8383 114.206 39.0998C114.433 39.3613 114.725 39.56 115.051 39.6767C121.033 41.817 126.067 46 129.266 51.4885C132.466 56.9771 133.625 63.4188 132.54 69.6784C131.455 75.938 128.195 81.6137 123.335 85.7053C118.475 89.7968 112.327 92.0416 105.974 92.0439L105.976 92.0486Z" fill="black"/>
<path d="M121.407 52.5171C121.29 52.2761 121.126 52.0608 120.925 51.8837C120.724 51.7065 120.49 51.5711 120.236 51.4853C119.982 51.3995 119.713 51.365 119.446 51.3838C119.179 51.4026 118.918 51.4744 118.678 51.5949C118.439 51.7154 118.226 51.8822 118.052 52.0858C117.877 52.2893 117.745 52.5254 117.663 52.7805C117.58 53.0355 117.55 53.3044 117.572 53.5715C117.595 53.8385 117.67 54.0985 117.794 54.3362C120.079 58.8576 120.563 64.0775 119.149 68.9422C117.735 73.8068 114.528 77.9539 110.176 80.5461C109.723 80.8254 109.399 81.2714 109.273 81.7877C109.147 82.3039 109.23 82.8491 109.502 83.3053C109.775 83.7615 110.216 84.092 110.73 84.2255C111.245 84.359 111.791 84.2847 112.251 84.0187C117.481 80.9022 121.335 75.9183 123.035 70.0721C124.735 64.226 124.154 57.9527 121.411 52.5177L121.407 52.5171Z" fill="black"/>
</svg>
