<svg width="32" height="32" viewBox="0 0 32 32" fill="none" xmlns="http://www.w3.org/2000/svg">
<rect width="32" height="32" rx="5" fill="url(#paint0_linear_13_108)"/>
<path d="M24.5766 14.3548C24.3431 13.4652 23.8222 12.6778 23.0952 12.115C22.3682 11.5522 21.4756 11.2456 20.5563 11.2428C20.4279 11.2428 20.3013 11.2485 20.1778 11.2597C19.5331 10.0566 18.5084 9.10101 17.2637 8.54198C16.019 7.98296 14.6242 7.85199 13.2972 8.16953C11.9703 8.48706 10.7857 9.23523 9.92854 10.2972C9.07137 11.3592 8.58982 12.6753 8.55904 14.0399C7.21162 14.2598 5.99633 14.979 5.15487 16.0546C4.31341 17.1301 3.90747 18.4831 4.01778 19.8444C4.12809 21.2058 4.74658 22.4757 5.75021 23.4015C6.75385 24.3274 8.06909 24.8414 9.4343 24.8413H22.5651C23.8289 24.8415 25.0531 24.4012 26.0271 23.596C27.0013 22.7908 27.6645 21.6711 27.9026 20.4296C28.1408 19.1881 27.9389 17.9024 27.3319 16.7936C26.7248 15.6849 25.7505 14.8225 24.5766 14.3548ZM22.5651 24.1322H9.4343C8.2234 24.1316 7.05898 23.6659 6.18139 22.8312C5.30379 21.9965 4.78002 20.8566 4.71817 19.6468C4.65633 18.437 5.06114 17.2496 5.84905 16.3297C6.63695 15.4098 7.74782 14.8277 8.95232 14.7034C9.04401 14.6941 9.1285 14.6495 9.18782 14.5789C9.24714 14.5083 9.27664 14.4174 9.27005 14.3254C9.26662 14.2772 9.26681 14.2287 9.26681 14.1805C9.26691 12.9424 9.68686 11.7409 10.458 10.7725C11.2292 9.80405 12.3059 9.12602 13.5122 8.84921C14.7185 8.57239 15.983 8.71318 17.0989 9.24855C18.2149 9.78391 19.1162 10.6822 19.6557 11.7965C19.6888 11.8652 19.7432 11.9213 19.8108 11.9566C19.8784 11.9918 19.9556 12.0042 20.0308 11.992C20.2045 11.9647 20.3802 11.9512 20.5561 11.9515C21.3465 11.9537 22.1123 12.227 22.7258 12.7256C23.3391 13.2243 23.7632 13.9183 23.9272 14.6919C23.9394 14.7514 23.9669 14.8067 24.0069 14.8525C24.0467 14.8984 24.0978 14.9332 24.1549 14.9536C25.2029 15.3288 26.0847 16.0619 26.6451 17.0238C27.2057 17.9857 27.4088 19.1146 27.2187 20.2117C27.0286 21.3087 26.4575 22.3034 25.6061 23.0205C24.7547 23.7376 23.6777 24.131 22.5648 24.1314L22.5651 24.1322Z" fill="black"/>
<path d="M25.2684 17.204C25.2479 17.1618 25.2191 17.1241 25.1839 17.093C25.1487 17.062 25.1077 17.0382 25.0632 17.0232C25.0187 17.0082 24.9716 17.0021 24.9248 17.0054C24.8781 17.0087 24.8323 17.0213 24.7903 17.0424C24.7484 17.0635 24.7111 17.0928 24.6806 17.1285C24.65 17.1641 24.6269 17.2055 24.6125 17.2502C24.5979 17.2949 24.5927 17.342 24.5965 17.3888C24.6006 17.4356 24.6137 17.4812 24.6354 17.5229C25.0357 18.3153 25.1205 19.2301 24.8728 20.0827C24.6251 20.9352 24.0633 21.662 23.3009 22.1163C23.2215 22.1653 23.1648 22.2435 23.1427 22.3339C23.1206 22.4244 23.1352 22.52 23.1828 22.5999C23.2306 22.6799 23.3079 22.7378 23.3979 22.7612C23.4882 22.7846 23.5838 22.7716 23.6644 22.7249C24.5806 22.1787 25.2558 21.3053 25.5536 20.2807C25.8514 19.2561 25.7496 18.1567 25.2691 17.2041L25.2684 17.204Z" fill="black"/>
<defs>
<linearGradient id="paint0_linear_13_108" x1="16" y1="0" x2="16" y2="32" gradientUnits="userSpaceOnUse">
<stop offset="0.817708" stop-color="white"/>
<stop offset="1" stop-color="#D5D5D5"/>
</linearGradient>
</defs>
</svg>
